<svg width="186" height="134" viewBox="0 0 186 134" fill="none" xmlns="http://www.w3.org/2000/svg">
<g clip-path="url(#clip0)">
<path d="M51.06 66.7C51.0561 64.377 51.5102 62.0761 52.3964 59.9288C53.2827 57.7815 54.5836 55.83 56.2248 54.186C57.866 52.542 59.8153 51.2378 61.961 50.3479C64.1068 49.458 66.407 49 68.73 49H68.63C70.953 49 73.2532 49.458 75.399 50.3479C77.5447 51.2378 79.494 52.542 81.1352 54.186C82.7764 55.83 84.0773 57.7815 84.9636 59.9288C85.8498 62.0761 86.3039 64.377 86.3 66.7V66.7C86.3 71.3864 84.4383 75.8808 81.1246 79.1946C77.8108 82.5083 73.3164 84.37 68.63 84.37H68.73C64.0436 84.37 59.5492 82.5083 56.2354 79.1946C52.9217 75.8808 51.06 71.3864 51.06 66.7ZM133.73 35.37H166.63C171.316 35.37 175.811 33.5083 179.125 30.1946C182.438 26.8808 184.3 22.3864 184.3 17.7V17.7C184.304 15.377 183.85 13.0761 182.964 10.9288C182.077 8.78148 180.776 6.83002 179.135 5.18603C177.494 3.54203 175.545 2.23779 173.399 1.34791C171.253 0.458037 168.953 -3.34799e-06 166.63 0L133.73 0C131.407 -3.34799e-06 129.107 0.458037 126.961 1.34791C124.815 2.23779 122.866 3.54203 121.225 5.18603C119.584 6.83002 118.283 8.78148 117.396 10.9288C116.51 13.0761 116.056 15.377 116.06 17.7V17.7C116.06 22.3864 117.922 26.8808 121.235 30.1946C124.549 33.5083 129.044 35.37 133.73 35.37V35.37ZM20.73 133.37H84.63C89.3164 133.37 93.8108 131.508 97.1246 128.195C100.438 124.881 102.3 120.386 102.3 115.7V115.7C102.304 113.377 101.85 111.076 100.964 108.929C100.077 106.781 98.7764 104.83 97.1352 103.186C95.494 101.542 93.5447 100.238 91.399 99.3479C89.2532 98.458 86.953 98 84.63 98H20.73C18.407 98 16.1068 98.458 13.961 99.3479C11.8153 100.238 9.86601 101.542 8.2248 103.186C6.5836 104.83 5.28266 106.781 4.39643 108.929C3.51019 111.076 3.05606 113.377 3.06 115.7V115.7C3.06 120.386 4.92166 124.881 8.23542 128.195C11.5492 131.508 16.0436 133.37 20.73 133.37V133.37ZM104.65 84.37H110.9L125.5 49H117.15L108.25 72.2H108.15L99.4 49H90.5L104.65 84.37ZM137.1 84.37H144.9V49H137.1V84.37ZM159.3 84.37H184.25V77.2H167.1V70H182.45V62.8H167.1V56.2H183.35V49H159.35L159.3 84.37ZM10.1 35.4H17.9V6.9H28V0H0V6.9H10.1V35.4ZM39 35.4H46.8V20.1H61.9V35.4H69.7V0H61.9V13.2H46.75V0H39V35.4ZM80.25 35.4H105.25V28.2H88V21H103.35V13.8H88V7.2H104.25V0H80.25V35.4ZM1.25 84.4H9V57.25H9.1L18.1 84.4H24L33.3 57.25H33.4V84.4H41.2V49H29.45L21.25 72.1H21.15L13 49H1.2L1.25 84.4ZM113.34 133.4H126C128.565 133.413 131.115 133.025 133.56 132.25C135.867 131.529 138.02 130.387 139.91 128.88C141.748 127.384 143.238 125.508 144.28 123.38C145.434 121.021 146.023 118.426 146 115.8C146.082 112.957 145.507 110.134 144.32 107.55C143.277 105.372 141.727 103.475 139.8 102.02C137.781 100.573 135.493 99.546 133.07 99C130.431 98.3406 127.721 98.0048 125 98H113.29L113.34 133.4ZM121.15 105.2H125.75C127.328 105.194 128.899 105.403 130.42 105.82C131.819 106.2 133.135 106.838 134.3 107.7C135.407 108.543 136.304 109.632 136.92 110.88C137.607 112.286 137.95 113.835 137.92 115.4C137.963 117.146 137.621 118.88 136.92 120.48C136.322 121.798 135.404 122.946 134.25 123.82C133.055 124.696 131.694 125.319 130.25 125.65C128.61 126.028 126.932 126.212 125.25 126.2H121.1L121.15 105.2ZM157.29 133.4H171.79C173.38 133.396 174.965 133.229 176.52 132.9C178.028 132.599 179.472 132.041 180.79 131.25C182.041 130.503 183.103 129.476 183.89 128.25C184.733 126.838 185.15 125.213 185.09 123.57C185.099 122.479 184.912 121.395 184.54 120.37C184.195 119.402 183.661 118.511 182.97 117.75C182.274 116.988 181.444 116.361 180.52 115.9C179.523 115.391 178.448 115.053 177.34 114.9V114.8C179.057 114.306 180.596 113.327 181.77 111.98C182.92 110.574 183.514 108.795 183.44 106.98C183.52 105.351 183.12 103.734 182.29 102.33C181.545 101.174 180.511 100.233 179.29 99.6C177.984 98.9328 176.574 98.4931 175.12 98.3C173.586 98.0893 172.039 97.9824 170.49 97.98H157.29V133.4ZM165.09 104.6H170.39C171.01 104.603 171.629 104.66 172.24 104.77C172.833 104.873 173.407 105.069 173.94 105.35C174.439 105.616 174.863 106.005 175.17 106.48C175.504 107.026 175.668 107.66 175.64 108.3C175.658 108.926 175.513 109.546 175.22 110.1C174.95 110.588 174.561 111.001 174.09 111.3C173.61 111.609 173.078 111.829 172.52 111.95C171.936 112.082 171.339 112.149 170.74 112.15H165L165.09 104.6ZM165.09 118.75H170.99C171.676 118.753 172.361 118.804 173.04 118.9C173.728 118.994 174.401 119.179 175.04 119.45C175.656 119.702 176.199 120.105 176.62 120.62C177.05 121.196 177.269 121.902 177.24 122.62C177.265 123.301 177.103 123.975 176.77 124.57C176.463 125.091 176.043 125.535 175.54 125.87C175.033 126.208 174.466 126.445 173.87 126.57C173.269 126.7 172.655 126.767 172.04 126.77H165.04L165.09 118.75Z" fill="url(#paint0_linear)"/>
</g>
</svg>
