<svg width="57" height="33" viewBox="0 0 57 33" fill="none" xmlns="http://www.w3.org/2000/svg">
<g>
<path d="M4.26001 2.61L2.23001 10.06L12.63 3.73L12.73 31.16H20.95V2.47L4.26001 2.61Z" fill="white"/>
<path d="M0.05 11.37H8.27V31.16H0L0.05 11.37Z" fill="white"/>
<path d="M25.31 11.47H33.53V31.26H25.26L25.31 11.47Z" fill="white"/>
<path d="M29.37 9C31.8553 9 33.87 6.98528 33.87 4.5C33.87 2.01472 31.8553 0 29.37 0C26.8847 0 24.87 2.01472 24.87 4.5C24.87 6.98528 26.8847 9 29.37 9Z" fill="white"/>
<path d="M56.34 15.89C55.9 9.06001 41.29 9.89001 38.77 12.21L38.68 15.16C38.68 15.16 46.76 7.85001 48.26 13.37V19.18C48.26 19.18 36.26 18.06 36.26 26.87C36.26 26.87 36.11 32.05 42.26 32.05C42.26 32.05 47.97 32.48 48.94 27.21L55.47 32.05H56.47L56.34 15.89ZM48.27 27.18C48.27 29.05 45.47 28.5 45.47 28.5C44.05 28.5 44.08 24.89 44.08 24.89C44.08 20.89 48.27 20.11 48.27 20.11V27.18Z" fill="white"/>
</g>
</svg>
