<svg xmlns="http://www.w3.org/2000/svg" viewBox="0 0 56.44 32.06"><defs><style>.cls-1{fill:#fff;}</style></defs><title>Ativo 2logo-ília</title><g id="Camada_2" data-name="Camada 2"><g id="Camada_1-2" data-name="Camada 1"><polygon class="cls-1" points="4.26 2.61 2.23 10.06 12.63 3.73 12.73 31.16 20.95 31.16 20.95 2.47 4.26 2.61"/><polygon class="cls-1" points="0.05 11.37 8.27 11.37 8.27 31.16 0 31.16 0.05 11.37"/><polygon class="cls-1" points="25.31 11.47 33.53 11.47 33.53 31.26 25.26 31.26 25.31 11.47"/><circle class="cls-1" cx="29.37" cy="4.5" r="4.5"/><path class="cls-1" d="M56.34,15.89c-.44-6.83-15.05-6-17.57-3.68l-.09,2.95s8.08-7.31,9.58-1.79v5.81s-12-1.12-12,7.69c0,0-.15,5.18,6,5.18,0,0,5.71.43,6.68-4.84l6.53,4.84h1ZM48.27,27.18c0,1.87-2.8,1.32-2.8,1.32-1.42,0-1.39-3.61-1.39-3.61,0-4,4.19-4.78,4.19-4.78Z"/></g></g></svg>